# xmcd CD database file
#
# Track frame offsets:
#	150
#	25897
#	57541
#	84832
#	107207
#	143939
#	186396
#	213142
#	248046
#	279034
#	292871
#	308932
#
# Disc length: 4400 seconds
#
# Revision: 0
# Processed by: cddbd v1.5PL3 Copyright (c) Steve Scherf et al.
# Submitted via: CDex 1.51
#
DISCID=a6112e0c
DTITLE=Eric Clapton - 24 Carat Blues Band CD1
DYEAR=1991
DGENRE=Blues
TTITLE0=Watch Yourself
TTITLE1=Hoodoo Man
TTITLE2=Hideaway
TTITLE3=Standing Around Crying
TTITLE4=All Your Love
TTITLE5=Have You Ever Loved A Woman
TTITLE6=Who's Loving You Tonight
TTITLE7=Key To The Highway
TTITLE8=Wee Wee Baby
TTITLE9=Long Time Comin'
TTITLE10=Johnnie's Boogie
TTITLE11=Leavin' Town
EXTD=YEAR: 1991
EXTT0=
EXTT1=
EXTT2=
EXTT3=
EXTT4=
EXTT5=
EXTT6=
EXTT7=
EXTT8=
EXTT9=
EXTT10=
EXTT11=
PLAYORDER=
